:FULLY-SPECIFIED
:FORCE-ALL-JOINTS-BE-3DOF
:DEGREES
714
root -12.0103 13.8321 -38.207 151.902 -61.2608 -147.268
lfemur -64.6121 24.8958 -0.625206
ltibia 75.3324 -0 0
lfoot -8.28555 -7.74526 -5.95453e-05
ltoes -3.67758 0 0
rfemur 8.83468 -10.1752 11.8273
rtibia 41.3595 -0 0
rfoot -25.0739 -27.5375 -0.00060995
rtoes -26.0787 0 0
lowerback 12.2109 1.4227 8.89056
upperback -1.72169 3.46357 5.73573
thorax -8.58814 1.27613 0.513425
lowerneck -4.55795 4.83786 0.631398
upperneck 4.04131 6.3483 1.26945
head 2.02028 3.20525 0.490939
lclavicle 0 0 0
lhumerus 62.5108 15.8006 107.266
lradius 11.8572 -0 0
lwrist -77.7331 0 0
lhand -33.4025 36.1239 -0.00461475
lfingers 0 0 0
lthumb -6.60279 66.0002 -0.00436293
rclavicle 0 0 0
rhumerus -75.4444 19.0717 -95.6039
rradius 114.72 -0 0
rwrist -65.9061 0 0
rhand -8.26286 -39.9971 0.351376
rfingers 0 0 0
rthumb 17.6465 -69.0996 0.37039
715
root -12.0218 13.8297 -38.213 151.92 -61.3051 -147.211
lfemur -64.7512 24.9255 -0.682195
ltibia 75.4609 -0 0
lfoot -8.35662 -7.74481 -6.07486e-05
ltoes -3.72134 0 0
rfemur 8.89448 -10.2007 11.8186
rtibia 41.2463 -0 0
rfoot -25.0508 -27.5517 -0.000622275
rtoes -26.3689 0 0
lowerback 12.1774 1.41928 8.89578
upperback -1.724 3.45552 5.73996
thorax -8.57173 1.27258 0.517415
lowerneck -4.50698 4.84658 0.676735
upperneck 4.01517 6.36028 1.21905
head 2.0058 3.21046 0.466062
lclavicle 0 0 0
lhumerus 62.5255 15.7529 107.161
lradius 11.8647 -0 0
lwrist -77.7346 0 0
lhand -33.361 36.0643 -0.004708
lfingers 0 0 0
lthumb -6.56269 65.9417 -0.0044511
rclavicle 0 0 0
rhumerus -75.4487 19.0674 -95.6288
rradius 114.608 -0 0
rwrist -65.6362 0 0
rhand -7.82357 -39.5667 0.358491
rfingers 0 0 0
rthumb 18.0691 -68.628 0.377891
716
root -12.0313 13.828 -38.2196 151.938 -61.3495 -147.154
lfemur -64.8911 24.9553 -0.739549
ltibia 75.5901 -0 0
lfoot -8.42803 -7.74435 -6.13955e-05
ltoes -3.76531 0 0
rfemur 8.95457 -10.2263 11.8098
rtibia 41.1325 -0 0
rfoot -25.0275 -27.5659 -0.000628901
rtoes -26.6604 0 0
lowerback 12.1437 1.41584 8.90104
upperback -1.72633 3.44743 5.74422
thorax -8.55524 1.26901 0.521424
lowerneck -4.45576 4.85531 0.722294
upperneck 3.98889 6.3723 1.16839
head 1.99125 3.2157 0.441064
lclavicle 0 0 0
lhumerus 62.5404 15.7049 107.054
lradius 11.8722 -0 0
lwrist -77.7361 0 0
lhand -33.3192 36.0043 -0.00475813
lfingers 0 0 0
lthumb -6.52241 65.883 -0.00449849
rclavicle 0 0 0
rhumerus -75.453 19.063 -95.6539
rradius 114.495 -0 0
rwrist -65.365 0 0
rhand -7.38216 -39.1343 0.362317
rfingers 0 0 0
rthumb 18.4937 -68.154 0.381924
717
root -12.0389 13.8268 -38.2267 151.956 -61.394 -147.097
lfemur -65.0312 24.985 -0.797045
ltibia 75.7194 -0 0
lfoot -8.4995 -7.7439 -6.14788e-05
ltoes -3.80932 0 0
rfemur 9.01472 -10.2519 11.8009
rtibia 41.0187 -0 0
rfoot -25.0043 -27.5802 -0.000629755
rtoes -26.9522 0 0
lowerback 12.1101 1.4124 8.90629
upperback -1.72865 3.43933 5.74848
thorax -8.53874 1.26544 0.525435
lowerneck -4.40448 4.86401 0.767901
upperneck 3.96258 6.3843 1.11769
head 1.97669 3.22093 0.416045
lclavicle 0 0 0
lhumerus 62.5554 15.657 106.948
lradius 11.8797 -0 0
lwrist -77.7376 0 0
lhand -33.2775 35.9443 -0.00476459
lfingers 0 0 0
lthumb -6.48209 65.8242 -0.0045046
rclavicle 0 0 0
rhumerus -75.4574 19.0587 -95.6789
rradius 114.383 -0 0
rwrist -65.0936 0 0
rhand -6.94035 -38.7014 0.362809
rfingers 0 0 0
rthumb 18.9187 -67.6797 0.382444
718
root -12.0448 13.8262 -38.2342 151.974 -61.4384 -147.04
lfemur -65.1709 25.0144 -0.854463
ltibia 75.8483 -0 0
lfoot -8.57075 -7.74345 -6.1e-05
ltoes -3.85319 0 0
rfemur 9.0747 -10.2775 11.7921
rtibia 40.9052 -0 0
rfoot -24.9811 -27.5944 -0.00062485
rtoes -27.2431 0 0
lowerback 12.0765 1.40898 8.91154
upperback -1.73097 3.43126 5.75273
thorax -8.52229 1.26188 0.529432
lowerneck -4.35336 4.87263 0.81338
upperneck 3.93633 6.39625 1.06713
head 1.96217 3.22614 0.391098
lclavicle 0 0 0
lhumerus 62.5704 15.6092 106.842
lradius 11.8872 -0 0
lwrist -77.7391 0 0
lhand -33.2358 35.8845 -0.00472748
lfingers 0 0 0
lthumb -6.4419 65.7657 -0.00446952
rclavicle 0 0 0
rhumerus -75.4617 19.0544 -95.704
rradius 114.271 -0 0
rwrist -64.823 0 0
rhand -6.49988 -38.2699 0.359978
rfingers 0 0 0
rthumb 19.3425 -67.2068 0.379459
719
root -12.0492 13.826 -38.2422 151.991 -61.4824 -146.983
lfemur -65.3097 25.0436 -0.911577
ltibia 75.9763 -0 0
lfoot -8.64152 -7.743 -5.99693e-05
ltoes -3.89677 0 0
rfemur 9.13427 -10.3028 11.7833
rtibia 40.7924 -0 0
rfoot -24.9581 -27.6085 -0.000614292
rtoes -27.532 0 0
lowerback 12.0431 1.40558 8.91675
upperback -1.73327 3.42324 5.75694
thorax -8.50595 1.25834 0.533401
lowerneck -4.30257 4.88116 0.858554
upperneck 3.91026 6.40809 1.01692
head 1.94775 3.23131 0.366322
lclavicle 0 0 0
lhumerus 62.5854 15.5618 106.737
lradius 11.8946 -0 0
lwrist -77.7405 0 0
lhand -33.1945 35.8251 -0.0046476
lfingers 0 0 0
lthumb -6.40198 65.7075 -0.00439399
rclavicle 0 0 0
rhumerus -75.4659 19.0501 -95.7288
rradius 114.159 -0 0
rwrist -64.5543 0 0
rhand -6.06247 -37.8413 0.353883
rfingers 0 0 0
rthumb 19.7632 -66.7371 0.373033
720
root -12.052 13.8263 -38.2504 152.009 -61.526 -146.927
lfemur -65.447 25.0723 -0.968163
ltibia 76.1029 -0 0
lfoot -8.71152 -7.74256 -5.84053e-05
ltoes -3.93987 0 0
rfemur 9.19321 -10.3279 11.7745
rtibia 40.6809 -0 0
rfoot -24.9354 -27.6225 -0.000598272
rtoes -27.8178 0 0
lowerback 12.0102 1.40222 8.9219
upperback -1.73555 3.41531 5.76112
thorax -8.48979 1.25484 0.537327
lowerneck -4.25233 4.88956 0.903247
upperneck 3.88445 6.41978 0.967236
head 1.93348 3.23641 0.341812
lclavicle 0 0 0
lhumerus 62.6003 15.515 106.633
lradius 11.902 -0 0
lwrist -77.742 0 0
lhand -33.1536 35.7663 -0.0045264
lfingers 0 0 0
lthumb -6.36249 65.6499 -0.0042794
rclavicle 0 0 0
rhumerus -75.4701 19.0459 -95.7533
rradius 114.049 -0 0
rwrist -64.2885 0 0
rhand -5.62985 -37.4175 0.344636
rfingers 0 0 0
rthumb 20.1794 -66.2726 0.363284
721
root -12.0535 13.827 -38.2589 152.026 -61.569 -146.871
lfemur -65.5824 25.1004 -1.024
ltibia 76.2277 -0 0
lfoot -8.78048 -7.74212 -5.63353e-05
ltoes -3.98233 0 0
rfemur 9.25128 -10.3526 11.7659
rtibia 40.571 -0 0
rfoot -24.913 -27.6362 -0.000577068
rtoes -28.0994 0 0
lowerback 11.9777 1.39892 8.92698
upperback -1.73779 3.4075 5.76523
thorax -8.47387 1.25138 0.541193
lowerneck -4.20283 4.89779 0.947284
upperneck 3.85902 6.43127 0.918289
head 1.91942 3.24144 0.317666
lclavicle 0 0 0
lhumerus 62.6151 15.4688 106.531
lradius 11.9092 -0 0
lwrist -77.7434 0 0
lhand -33.1133 35.7084 -0.00436597
lfingers 0 0 0
lthumb -6.32359 65.5932 -0.00412773
rclavicle 0 0 0
rhumerus -75.4743 19.0417 -95.7775
rradius 113.94 -0 0
rwrist -64.0266 0 0
rhand -5.20374 -37 0.332397
rfingers 0 0 0
rthumb 20.5893 -65.8151 0.350382
